<?xml version="1.0" standalone="no"?>
<!DOCTYPE svg PUBLIC "-//W3C//DTD SVG 1.1//EN" "http://www.w3.org/Graphics/SVG/1.1/DTD/svg11.dtd" >
<svg xmlns="http://www.w3.org/2000/svg">
<metadata>Generated by IcoMoon</metadata>
<defs>
<font id="Dry" horiz-adv-x="1024">
<font-face units-per-em="1024" ascent="960" descent="-64" />
<missing-glyph horiz-adv-x="1024" />
<glyph unicode="&#x20;" horiz-adv-x="512" d="" />
<glyph unicode="&#xe900;" glyph-name="Dry-01" d="M790.528 704c-12.288 0-20.48-8.192-20.48-20.48v-94.208c-14.336-6.144-30.72-8.192-49.152-8.192-36.864 0-71.68 14.336-94.208 36.864l-14.336 16.384-14.336-16.384c-20.48-22.528-55.296-36.864-94.208-36.864-36.864 0-71.68 14.336-94.208 36.864l-14.336 16.384-14.336-16.384c-20.48-22.528-55.296-36.864-94.208-36.864-16.384 0-32.768 4.096-49.152 8.192v94.208c0 12.288-8.192 20.48-20.48 20.48s-20.48-8.192-20.48-20.48v-491.52c0-12.288 8.192-20.48 20.48-20.48h573.44c12.288 0 20.48 8.192 20.48 20.48v491.52c0 12.288-10.24 20.48-20.48 20.48zM284.672 540.16c40.96 0 79.872 12.288 108.544 36.864 28.672-22.528 67.584-36.864 108.544-36.864s79.872 12.288 108.544 36.864c28.672-22.528 67.584-36.864 108.544-36.864 16.384 0 32.768 2.048 49.152 6.144v-333.824h-532.48v333.824c16.384-4.096 32.768-6.144 49.152-6.144z" />
<glyph unicode="&#xe901;" glyph-name="Dry-02" d="M788.48 181.76h-573.44c-12.288 0-20.48-8.192-20.48-20.48s8.192-20.48 20.48-20.48h573.44c12.288 0 20.48 8.192 20.48 20.48s-10.24 20.48-20.48 20.48zM790.528 755.2c-12.288 0-20.48-8.192-20.48-20.48v-94.208c-16.384-4.096-32.768-8.192-49.152-8.192-36.864 0-71.68 14.336-94.208 36.864l-14.336 16.384-14.336-16.384c-20.48-22.528-55.296-36.864-94.208-36.864-36.864 0-71.68 14.336-94.208 36.864l-14.336 16.384-14.336-16.384c-20.48-22.528-55.296-36.864-94.208-36.864-16.384 0-32.768 4.096-49.152 8.192v94.208c0 12.288-8.192 20.48-20.48 20.48s-20.48-8.192-20.48-20.48v-491.52c0-12.288 8.192-20.48 20.48-20.48h573.44c12.288 0 20.48 8.192 20.48 20.48v491.52c0 12.288-10.24 20.48-20.48 20.48zM770.048 263.68h-532.48v333.824c14.336-4.096 30.72-6.144 49.152-6.144 40.96 0 79.872 12.288 108.544 36.864 28.672-22.528 67.584-36.864 108.544-36.864s79.872 12.288 108.544 36.864c28.672-22.528 67.584-36.864 108.544-36.864 16.384 0 32.768 2.048 49.152 6.144v-333.824z" />
<glyph unicode="&#xe902;" glyph-name="Dry-03" d="M798.72 171.52h-573.44c-12.288 0-20.48 8.192-20.48 20.48v0c0 12.288 8.192 20.48 20.48 20.48h573.44c12.288 0 20.48-8.192 20.48-20.48v0c0-12.288-10.24-20.48-20.48-20.48zM798.72 89.6h-573.44c-12.288 0-20.48 8.192-20.48 20.48v0c0 12.288 8.192 20.48 20.48 20.48h573.44c12.288 0 20.48-8.192 20.48-20.48v0c0-12.288-10.24-20.48-20.48-20.48zM798.72 785.92c-12.288 0-20.48-8.192-20.48-20.48v-94.208c-14.336-6.144-30.72-8.192-49.152-8.192-36.864 0-71.68 14.336-94.208 36.864l-14.336 16.384-14.336-16.384c-20.48-22.528-55.296-36.864-94.208-36.864-36.864 0-71.68 14.336-94.208 36.864l-14.336 16.384-14.336-16.384c-20.48-22.528-55.296-36.864-94.208-36.864-16.384 0-32.768 4.096-49.152 8.192v94.208c0 12.288-8.192 20.48-20.48 20.48s-20.48-8.192-20.48-20.48v-491.52c0-12.288 8.192-20.48 20.48-20.48h573.44c12.288 0 20.48 8.192 20.48 20.48v491.52c0 12.288-8.192 20.48-20.48 20.48zM294.912 622.080c40.96 0 79.872 12.288 108.544 36.864 28.672-22.528 67.584-36.864 108.544-36.864s79.872 12.288 108.544 36.864c28.672-22.528 67.584-36.864 108.544-36.864 16.384 0 32.768 2.048 49.152 6.144v-333.824h-532.48v333.824c16.384-4.096 32.768-6.144 49.152-6.144z" />
<glyph unicode="&#xe903;" glyph-name="Dry-04" d="M798.72 667.136c-12.288 0-20.48-8.192-20.48-20.48v-94.208c-14.336-6.144-30.72-8.192-49.152-8.192-24.576 0-47.104 6.144-65.536 16.384v137.216c0 34.816-26.624 61.44-61.44 61.44h-163.84c-34.816 0-61.44-26.624-61.44-61.44v-86.016l-65.536-65.536c-6.144 0-12.288-2.048-18.432-2.048-16.384 0-32.768 4.096-49.152 8.192v94.208c0 12.288-8.192 20.48-20.48 20.48s-20.48-8.192-20.48-20.48v-491.52c0-12.288 8.192-20.48 20.48-20.48h573.44c12.288 0 20.48 8.192 20.48 20.48v491.52c2.048 12.288-6.144 20.48-18.432 20.48zM331.776 509.44c2.048 0 2.048 0 4.096 0v4.096l81.92 81.92v104.448c0 12.288 8.192 20.48 20.48 20.48h163.84c12.288 0 20.48-8.192 20.48-20.48v-409.6c0-12.288-8.192-20.48-20.48-20.48s-20.48 8.192-20.48 20.48v143.36c0 12.288-8.192 20.48-20.48 20.48s-20.48-8.192-20.48-20.48v-143.36c0-12.288-8.192-20.48-20.48-20.48s-20.48 8.192-20.48 20.48v143.36c0 12.288-8.192 20.48-20.48 20.48s-20.48-8.192-20.48-20.48v-143.36c0-12.288-8.192-20.48-20.48-20.48s-20.48 8.192-20.48 20.48v245.76l-57.344-57.344c-4.096-4.096-10.24-6.144-14.336-6.144s-10.24 2.048-14.336 6.144c-6.144 10.24-6.144 22.528 0 30.72zM778.24 175.616h-532.48v335.872c12.288-4.096 26.624-6.144 40.96-6.144-4.096-18.432 2.048-38.912 16.384-53.248 12.288-12.288 26.624-18.432 43.008-18.432 10.24 0 20.48 2.048 30.72 8.192v-151.552c0-34.816 26.624-61.44 61.44-61.44 16.384 0 30.72 6.144 40.96 16.384 10.24-10.24 24.576-16.384 40.96-16.384s30.72 6.144 40.96 16.384c10.24-10.24 24.576-16.384 40.96-16.384 34.816 0 61.44 26.624 61.44 61.44v225.28c20.48-8.192 43.008-12.288 65.536-12.288 16.384 0 32.768 2.048 49.152 6.144v-333.824z" />
<glyph unicode="&#xe904;" glyph-name="Dry-05" d="M962.56 271.872l-143.36 63.488v227.328l143.36 63.488c10.24 6.144 12.288 18.432 8.192 28.672-6.144 10.24-18.432 12.288-28.672 8.192l-122.88-53.248v83.968c0 12.288-8.192 20.48-20.48 20.48s-20.48-8.192-20.48-20.48v-94.208c-14.336-6.144-30.72-8.192-49.152-8.192-36.864 0-71.68 14.336-94.208 36.864l-14.336 16.384-14.336-16.384c-20.48-22.528-55.296-36.864-94.208-36.864-36.864 0-71.68 14.336-94.208 36.864l-14.336 16.384-14.336-16.384c-20.48-22.528-55.296-36.864-94.208-36.864-16.384 0-32.768 4.096-49.152 8.192v94.208c0 12.288-8.192 20.48-20.48 20.48s-20.48-8.192-20.48-20.48v-88.064l-122.88 53.248c-8.192 6.144-20.48 4.096-26.624-6.144s-2.048-22.528 8.192-28.672l143.36-63.488v-227.328l-143.36-63.488c-10.24-6.144-12.288-18.432-8.192-28.672 6.144-8.192 18.432-10.24 26.624-6.144l122.88 53.248v-86.016c0-12.288 8.192-20.48 20.48-20.48h573.44c12.288 0 20.48 8.192 20.48 20.48v88.064l122.88-53.248c10.24-6.144 22.528-2.048 28.672 8.192 4.096 8.192 0 20.48-8.192 26.624zM778.24 351.744l-215.040 96.256 215.040 96.256v-192.512zM403.456 587.264c28.672-24.576 67.584-36.864 108.544-36.864s79.872 12.288 108.544 36.864c20.48-16.384 49.152-28.672 77.824-32.768l-186.368-81.92-186.368 81.92c28.672 4.096 55.296 14.336 77.824 32.768zM245.76 544.256l215.040-96.256-215.040-96.256v192.512zM778.24 222.72h-532.48v86.016l266.24 118.784 266.24-118.784v-86.016z" />
<glyph unicode="&#xe905;" glyph-name="Dry-06" d="M798.72 714.24c-12.288 0-20.48-8.192-20.48-20.48v-94.208c-14.336-6.144-30.72-8.192-49.152-8.192-36.864 0-71.68 14.336-94.208 36.864l-14.336 16.384-14.336-16.384c-20.48-22.528-55.296-36.864-94.208-36.864-36.864 0-71.68 14.336-94.208 36.864l-14.336 16.384-14.336-16.384c-20.48-22.528-55.296-36.864-94.208-36.864-16.384 0-32.768 4.096-49.152 8.192v94.208c0 12.288-8.192 20.48-20.48 20.48s-20.48-8.192-20.48-20.48v-491.52c0-12.288 8.192-20.48 20.48-20.48h573.44c12.288 0 20.48 8.192 20.48 20.48v491.52c0 12.288-8.192 20.48-20.48 20.48zM778.24 222.72h-532.48v333.824c14.336-4.096 30.72-6.144 49.152-6.144 40.96 0 79.872 12.288 108.544 36.864 28.672-24.576 67.584-36.864 108.544-36.864s79.872 12.288 108.544 36.864c28.672-22.528 67.584-36.864 108.544-36.864 16.384 0 32.768 2.048 49.152 6.144v-333.824zM395.264 378.368v0c20.48 8.192 30.72 22.528 30.72 40.96 0 24.576-20.48 43.008-57.344 43.008-22.528 0-43.008-6.144-53.248-12.288l8.192-28.672c8.192 4.096 22.528 10.24 36.864 10.24 16.384 0 24.576-8.192 24.576-18.432 0-14.336-16.384-20.48-30.72-20.48h-16.384v-28.672h16.384c18.432 0 34.816-8.192 34.816-24.576 0-12.288-10.24-22.528-30.72-22.528-16.384 0-32.768 6.144-40.96 10.24l-8.192-30.72c10.24-6.144 28.672-12.288 51.2-12.288 43.008 0 71.68 22.528 71.68 53.248 0 22.528-16.384 36.864-36.864 40.96zM522.24 462.336c-45.056 0-65.536-38.912-65.536-90.112 0-49.152 20.48-90.112 65.536-90.112s65.536 36.864 65.536 90.112c-2.048 49.152-18.432 90.112-65.536 90.112zM522.24 314.88c-16.384 0-24.576 18.432-24.576 59.392s10.24 59.392 24.576 59.392c16.384 0 24.576-20.48 24.576-59.392 0-40.96-8.192-59.392-24.576-59.392zM655.36 503.296c-34.816 0-51.2-28.672-51.2-65.536 0-38.912 18.432-65.536 51.2-65.536 36.864 0 53.248 28.672 53.248 65.536-2.048 38.912-18.432 65.536-53.248 65.536zM655.36 394.752c-12.288 0-20.48 14.336-20.48 45.056 0 28.672 8.192 43.008 20.48 43.008 14.336 0 20.48-14.336 20.48-43.008 0-30.72-8.192-45.056-20.48-45.056z" />
<glyph unicode="&#xe906;" glyph-name="Dry-07" d="M798.72 714.24c-12.288 0-20.48-8.192-20.48-20.48v-94.208c-14.336-6.144-30.72-8.192-49.152-8.192-36.864 0-71.68 14.336-94.208 36.864l-14.336 16.384-14.336-16.384c-20.48-22.528-55.296-36.864-94.208-36.864-36.864 0-71.68 14.336-94.208 36.864l-14.336 16.384-14.336-16.384c-20.48-22.528-55.296-36.864-94.208-36.864-16.384 0-32.768 4.096-49.152 8.192v94.208c0 12.288-8.192 20.48-20.48 20.48s-20.48-8.192-20.48-20.48v-491.52c0-12.288 8.192-20.48 20.48-20.48h573.44c12.288 0 20.48 8.192 20.48 20.48v491.52c0 12.288-8.192 20.48-20.48 20.48zM778.24 222.72h-532.48v333.824c14.336-4.096 30.72-6.144 49.152-6.144 40.96 0 79.872 12.288 108.544 36.864 28.672-24.576 67.584-36.864 108.544-36.864s79.872 12.288 108.544 36.864c28.672-22.528 67.584-36.864 108.544-36.864 16.384 0 32.768 2.048 49.152 6.144v-333.824zM421.888 458.24h-49.152l-65.536-104.448v-26.624h75.776v-40.96h38.912v40.96h20.48v30.72h-20.48v100.352zM382.976 396.8v-38.912h-38.912l22.528 36.864c6.144 10.24 10.24 20.48 16.384 32.768h2.048c-2.048-10.24-2.048-20.48-2.048-30.72zM522.24 462.336c-45.056 0-65.536-38.912-65.536-90.112 0-49.152 20.48-90.112 65.536-90.112s65.536 36.864 65.536 90.112c-2.048 49.152-18.432 90.112-65.536 90.112zM522.24 314.88c-16.384 0-24.576 18.432-24.576 59.392s10.24 59.392 24.576 59.392c16.384 0 24.576-20.48 24.576-59.392 0-40.96-8.192-59.392-24.576-59.392zM655.36 503.296c-34.816 0-51.2-28.672-51.2-65.536 0-38.912 18.432-65.536 51.2-65.536 36.864 0 53.248 28.672 53.248 65.536-2.048 38.912-18.432 65.536-53.248 65.536zM655.36 394.752c-12.288 0-20.48 14.336-20.48 45.056 0 28.672 8.192 43.008 20.48 43.008 14.336 0 20.48-14.336 20.48-43.008 0-30.72-8.192-45.056-20.48-45.056z" />
<glyph unicode="&#xe907;" glyph-name="Dry-08" d="M798.72 714.24c-12.288 0-20.48-8.192-20.48-20.48v-94.208c-14.336-6.144-30.72-8.192-49.152-8.192-36.864 0-71.68 14.336-94.208 36.864l-14.336 16.384-14.336-16.384c-20.48-22.528-55.296-36.864-94.208-36.864-36.864 0-71.68 14.336-94.208 36.864l-14.336 16.384-14.336-16.384c-20.48-22.528-55.296-36.864-94.208-36.864-16.384 0-32.768 4.096-49.152 8.192v94.208c0 12.288-8.192 20.48-20.48 20.48s-20.48-8.192-20.48-20.48v-491.52c0-12.288 8.192-20.48 20.48-20.48h573.44c12.288 0 20.48 8.192 20.48 20.48v491.52c0 12.288-8.192 20.48-20.48 20.48zM778.24 222.72h-532.48v333.824c14.336-4.096 30.72-6.144 49.152-6.144 40.96 0 79.872 12.288 108.544 36.864 28.672-24.576 67.584-36.864 108.544-36.864s79.872 12.288 108.544 36.864c28.672-22.528 67.584-36.864 108.544-36.864 16.384 0 32.768 2.048 49.152 6.144v-333.824zM411.648 386.56c-12.288 8.192-28.672 12.288-45.056 12.288-4.096 0-8.192 0-10.24 0l4.096 26.624h67.584v32.768h-94.208l-12.288-90.112c8.192 2.048 14.336 2.048 22.528 2.048 34.816 0 49.152-10.24 49.152-28.672s-18.432-26.624-34.816-26.624c-16.384 0-30.72 4.096-38.912 8.192l-8.192-30.72c10.24-4.096 26.624-10.24 49.152-10.24 47.104 0 73.728 28.672 73.728 61.44 0 20.48-8.192 34.816-22.528 43.008zM522.24 462.336c-45.056 0-65.536-38.912-65.536-90.112 0-49.152 20.48-90.112 65.536-90.112s65.536 36.864 65.536 90.112c-2.048 49.152-18.432 90.112-65.536 90.112zM522.24 314.88c-16.384 0-24.576 18.432-24.576 59.392s10.24 59.392 24.576 59.392c16.384 0 24.576-20.48 24.576-59.392 0-40.96-8.192-59.392-24.576-59.392zM655.36 503.296c-34.816 0-51.2-28.672-51.2-65.536 0-38.912 18.432-65.536 51.2-65.536 36.864 0 53.248 28.672 53.248 65.536-2.048 38.912-18.432 65.536-53.248 65.536zM655.36 394.752c-12.288 0-20.48 14.336-20.48 45.056 0 28.672 8.192 43.008 20.48 43.008 14.336 0 20.48-14.336 20.48-43.008 0-30.72-8.192-45.056-20.48-45.056z" />
<glyph unicode="&#xe908;" glyph-name="Dry-09" d="M798.72 714.24c-12.288 0-20.48-8.192-20.48-20.48v-94.208c-14.336-6.144-30.72-8.192-49.152-8.192-36.864 0-71.68 14.336-94.208 36.864l-14.336 16.384-14.336-16.384c-20.48-22.528-55.296-36.864-94.208-36.864-36.864 0-71.68 14.336-94.208 36.864l-14.336 16.384-14.336-16.384c-20.48-22.528-55.296-36.864-94.208-36.864-16.384 0-32.768 4.096-49.152 8.192v94.208c0 12.288-8.192 20.48-20.48 20.48s-20.48-8.192-20.48-20.48v-491.52c0-12.288 8.192-20.48 20.48-20.48h573.44c12.288 0 20.48 8.192 20.48 20.48v491.52c0 12.288-8.192 20.48-20.48 20.48zM778.24 222.72h-532.48v333.824c14.336-4.096 30.72-6.144 49.152-6.144 40.96 0 79.872 12.288 108.544 36.864 28.672-24.576 67.584-36.864 108.544-36.864s79.872 12.288 108.544 36.864c28.672-22.528 67.584-36.864 108.544-36.864 16.384 0 32.768 2.048 49.152 6.144v-333.824zM387.072 402.944c-16.384 0-28.672-4.096-36.864-14.336v0c4.096 20.48 20.48 38.912 57.344 40.96 6.144 0 10.24 0 16.384 0v30.72c-4.096 0-8.192 0-16.384 0-26.624-2.048-49.152-10.24-67.584-24.576-18.432-16.384-30.72-45.056-30.72-77.824 0-40.96 22.528-75.776 69.632-75.776 36.864 0 63.488 28.672 63.488 63.488-2.048 36.864-26.624 57.344-55.296 57.344zM376.832 312.832c-18.432 0-26.624 16.384-28.672 34.816 0 4.096 0 8.192 2.048 10.24 4.096 8.192 12.288 16.384 24.576 16.384 16.384 0 26.624-14.336 26.624-30.72-2.048-16.384-10.24-30.72-24.576-30.72zM522.24 462.336c-45.056 0-65.536-38.912-65.536-90.112 0-49.152 20.48-90.112 65.536-90.112s65.536 36.864 65.536 90.112c-2.048 49.152-18.432 90.112-65.536 90.112zM522.24 314.88c-16.384 0-24.576 18.432-24.576 59.392s10.24 59.392 24.576 59.392c16.384 0 24.576-20.48 24.576-59.392 0-40.96-8.192-59.392-24.576-59.392zM655.36 503.296c-34.816 0-51.2-28.672-51.2-65.536 0-38.912 18.432-65.536 51.2-65.536 36.864 0 53.248 28.672 53.248 65.536-2.048 38.912-18.432 65.536-53.248 65.536zM655.36 394.752c-12.288 0-20.48 14.336-20.48 45.056 0 28.672 8.192 43.008 20.48 43.008 14.336 0 20.48-14.336 20.48-43.008 0-30.72-8.192-45.056-20.48-45.056z" />
<glyph unicode="&#xe909;" glyph-name="Dry-10" d="M798.72 714.24c-12.288 0-20.48-8.192-20.48-20.48v-94.208c-14.336-6.144-30.72-8.192-49.152-8.192-36.864 0-71.68 14.336-94.208 36.864l-14.336 16.384-14.336-16.384c-20.48-22.528-55.296-36.864-94.208-36.864-36.864 0-71.68 14.336-94.208 36.864l-14.336 16.384-14.336-16.384c-20.48-22.528-55.296-36.864-94.208-36.864-16.384 0-32.768 4.096-49.152 8.192v94.208c0 12.288-8.192 20.48-20.48 20.48s-20.48-8.192-20.48-20.48v-491.52c0-12.288 8.192-20.48 20.48-20.48h573.44c12.288 0 20.48 8.192 20.48 20.48v491.52c0 12.288-8.192 20.48-20.48 20.48zM778.24 222.72h-532.48v333.824c14.336-4.096 30.72-6.144 49.152-6.144 40.96 0 79.872 12.288 108.544 36.864 28.672-24.576 67.584-36.864 108.544-36.864s79.872 12.288 108.544 36.864c28.672-22.528 67.584-36.864 108.544-36.864 16.384 0 32.768 2.048 49.152 6.144v-333.824zM313.344 425.472h79.872l-71.68-139.264h43.008l69.632 147.456v24.576h-120.832zM522.24 462.336c-45.056 0-65.536-38.912-65.536-90.112 0-49.152 20.48-90.112 65.536-90.112s65.536 36.864 65.536 90.112c-2.048 49.152-18.432 90.112-65.536 90.112zM522.24 314.88c-16.384 0-24.576 18.432-24.576 59.392s10.24 59.392 24.576 59.392c16.384 0 24.576-20.48 24.576-59.392 0-40.96-8.192-59.392-24.576-59.392zM655.36 503.296c-34.816 0-51.2-28.672-51.2-65.536 0-38.912 18.432-65.536 51.2-65.536 36.864 0 53.248 28.672 53.248 65.536-2.048 38.912-18.432 65.536-53.248 65.536zM655.36 394.752c-12.288 0-20.48 14.336-20.48 45.056 0 28.672 8.192 43.008 20.48 43.008 14.336 0 20.48-14.336 20.48-43.008 0-30.72-8.192-45.056-20.48-45.056z" />
<glyph unicode="&#xe90a;" glyph-name="Dry-11" d="M798.72 714.24c-12.288 0-20.48-8.192-20.48-20.48v-94.208c-14.336-6.144-30.72-8.192-49.152-8.192-36.864 0-71.68 14.336-94.208 36.864l-14.336 16.384-14.336-16.384c-20.48-22.528-55.296-36.864-94.208-36.864-36.864 0-71.68 14.336-94.208 36.864l-14.336 16.384-14.336-16.384c-20.48-22.528-55.296-36.864-94.208-36.864-16.384 0-32.768 4.096-49.152 8.192v94.208c0 12.288-8.192 20.48-20.48 20.48s-20.48-8.192-20.48-20.48v-491.52c0-12.288 8.192-20.48 20.48-20.48h573.44c12.288 0 20.48 8.192 20.48 20.48v491.52c0 12.288-8.192 20.48-20.48 20.48zM778.24 222.72h-532.48v333.824c14.336-4.096 30.72-6.144 49.152-6.144 40.96 0 79.872 12.288 108.544 36.864 28.672-24.576 67.584-36.864 108.544-36.864s79.872 12.288 108.544 36.864c28.672-22.528 67.584-36.864 108.544-36.864 16.384 0 32.768 2.048 49.152 6.144v-333.824zM372.736 462.336c-38.912 0-65.536-28.672-65.536-61.44s24.576-53.248 53.248-53.248c16.384 0 26.624 4.096 34.816 12.288v0c-4.096-12.288-10.24-24.576-22.528-32.768-10.24-6.144-22.528-10.24-34.816-10.24-8.192 0-12.288 0-18.432 0v-32.768c4.096 0 12.288 0 18.432 0 26.624 2.048 49.152 10.24 65.536 24.576 18.432 16.384 30.72 43.008 30.72 79.872 4.096 38.912-16.384 73.728-61.44 73.728zM395.264 386.56c-4.096-6.144-12.288-12.288-22.528-12.288-16.384 0-24.576 12.288-24.576 28.672 0 18.432 10.24 30.72 24.576 30.72 18.432 0 24.576-18.432 24.576-36.864 0-6.144 0-8.192-2.048-10.24zM561.152 386.56c-12.288 8.192-28.672 12.288-45.056 12.288-4.096 0-8.192 0-10.24 0l4.096 26.624h63.488v32.768h-94.208l-12.288-90.112c8.192 2.048 14.336 2.048 22.528 2.048 34.816 0 49.152-10.24 49.152-28.672s-18.432-26.624-34.816-26.624c-16.384 0-30.72 4.096-38.912 8.192l-8.192-30.72c10.24-4.096 26.624-10.24 49.152-10.24 47.104 0 73.728 28.672 73.728 61.44 2.048 20.48-6.144 34.816-18.432 43.008zM655.36 503.296c-34.816 0-51.2-28.672-51.2-65.536 0-38.912 18.432-65.536 51.2-65.536 36.864 0 53.248 28.672 53.248 65.536-2.048 38.912-18.432 65.536-53.248 65.536zM655.36 394.752c-12.288 0-20.48 14.336-20.48 45.056 0 28.672 8.192 43.008 20.48 43.008 14.336 0 20.48-14.336 20.48-43.008 0-30.72-8.192-45.056-20.48-45.056z" />
<glyph unicode="&#xe90b;" glyph-name="Dry-12" d="M798.72 714.24c-12.288 0-20.48-8.192-20.48-20.48v-94.208c-14.336-6.144-30.72-8.192-49.152-8.192-36.864 0-71.68 14.336-94.208 36.864l-14.336 16.384-14.336-16.384c-20.48-22.528-55.296-36.864-94.208-36.864-36.864 0-71.68 14.336-94.208 36.864l-14.336 16.384-14.336-16.384c-20.48-22.528-55.296-36.864-94.208-36.864-16.384 0-32.768 4.096-49.152 8.192v94.208c0 12.288-8.192 20.48-20.48 20.48s-20.48-8.192-20.48-20.48v-491.52c0-12.288 8.192-20.48 20.48-20.48h573.44c12.288 0 20.48 8.192 20.48 20.48v491.52c0 12.288-8.192 20.48-20.48 20.48zM778.24 222.72h-532.48v333.824c14.336-4.096 30.72-6.144 49.152-6.144 40.96 0 79.872 12.288 108.544 36.864 28.672-24.576 67.584-36.864 108.544-36.864s79.872 12.288 108.544 36.864c28.672-22.528 67.584-36.864 108.544-36.864 16.384 0 32.768 2.048 49.152 6.144v-333.824zM516.096 448c-22.528 2.048-43.008-14.336-45.056-36.864s14.336-43.008 36.864-45.056c22.528-2.048 43.008 14.336 45.056 36.864s-14.336 43.008-36.864 45.056z" />
<glyph unicode="&#xe90c;" glyph-name="Dry-13" d="M798.72 714.24c-12.288 0-20.48-8.192-20.48-20.48v-94.208c-14.336-6.144-30.72-8.192-49.152-8.192-36.864 0-71.68 14.336-94.208 36.864l-14.336 16.384-14.336-16.384c-20.48-22.528-55.296-36.864-94.208-36.864-36.864 0-71.68 14.336-94.208 36.864l-14.336 16.384-14.336-16.384c-20.48-22.528-55.296-36.864-94.208-36.864-16.384 0-32.768 4.096-49.152 8.192v94.208c0 12.288-8.192 20.48-20.48 20.48s-20.48-8.192-20.48-20.48v-491.52c0-12.288 8.192-20.48 20.48-20.48h573.44c12.288 0 20.48 8.192 20.48 20.48v491.52c0 12.288-8.192 20.48-20.48 20.48zM778.24 222.72h-532.48v333.824c14.336-4.096 30.72-6.144 49.152-6.144 40.96 0 79.872 12.288 108.544 36.864 28.672-24.576 67.584-36.864 108.544-36.864s79.872 12.288 108.544 36.864c28.672-22.528 67.584-36.864 108.544-36.864 16.384 0 32.768 2.048 49.152 6.144v-333.824zM481.28 407.040c0-22.622-18.338-40.96-40.96-40.96s-40.96 18.338-40.96 40.96c0 22.622 18.338 40.96 40.96 40.96s40.96-18.338 40.96-40.96zM624.64 407.040c0-22.622-18.338-40.96-40.96-40.96s-40.96 18.338-40.96 40.96c0 22.622 18.338 40.96 40.96 40.96s40.96-18.338 40.96-40.96z" />
<glyph unicode="&#xe90d;" glyph-name="Dry-14" d="M798.72 714.24c-12.288 0-20.48-8.192-20.48-20.48v-94.208c-14.336-6.144-30.72-8.192-49.152-8.192-36.864 0-71.68 14.336-94.208 36.864l-14.336 16.384-14.336-16.384c-20.48-22.528-55.296-36.864-94.208-36.864-36.864 0-71.68 14.336-94.208 36.864l-14.336 16.384-14.336-16.384c-20.48-22.528-55.296-36.864-94.208-36.864-16.384 0-32.768 4.096-49.152 8.192v94.208c0 12.288-8.192 20.48-20.48 20.48s-20.48-8.192-20.48-20.48v-491.52c0-12.288 8.192-20.48 20.48-20.48h573.44c12.288 0 20.48 8.192 20.48 20.48v491.52c0 12.288-8.192 20.48-20.48 20.48zM778.24 222.72h-532.48v333.824c14.336-4.096 30.72-6.144 49.152-6.144 40.96 0 79.872 12.288 108.544 36.864 28.672-24.576 67.584-36.864 108.544-36.864s79.872 12.288 108.544 36.864c28.672-22.528 67.584-36.864 108.544-36.864 16.384 0 32.768 2.048 49.152 6.144v-333.824zM409.6 407.040c0-22.622-18.338-40.96-40.96-40.96s-40.96 18.338-40.96 40.96c0 22.622 18.338 40.96 40.96 40.96s40.96-18.338 40.96-40.96zM552.96 407.040c0-22.622-18.338-40.96-40.96-40.96s-40.96 18.338-40.96 40.96c0 22.622 18.338 40.96 40.96 40.96s40.96-18.338 40.96-40.96zM696.32 407.040c0-22.622-18.338-40.96-40.96-40.96s-40.96 18.338-40.96 40.96c0 22.622 18.338 40.96 40.96 40.96s40.96-18.338 40.96-40.96z" />
<glyph unicode="&#xe90e;" glyph-name="Dry-15" d="M798.72 714.24c-12.288 0-20.48-8.192-20.48-20.48v-94.208c-14.336-6.144-30.72-8.192-49.152-8.192-36.864 0-71.68 14.336-94.208 36.864l-14.336 16.384-14.336-16.384c-20.48-22.528-55.296-36.864-94.208-36.864-36.864 0-71.68 14.336-94.208 36.864l-14.336 16.384-14.336-16.384c-20.48-22.528-55.296-36.864-94.208-36.864-16.384 0-32.768 4.096-49.152 8.192v94.208c0 12.288-8.192 20.48-20.48 20.48s-20.48-8.192-20.48-20.48v-491.52c0-12.288 8.192-20.48 20.48-20.48h573.44c12.288 0 20.48 8.192 20.48 20.48v491.52c0 12.288-8.192 20.48-20.48 20.48zM778.24 222.72h-532.48v333.824c14.336-4.096 30.72-6.144 49.152-6.144 40.96 0 79.872 12.288 108.544 36.864 28.672-24.576 67.584-36.864 108.544-36.864s79.872 12.288 108.544 36.864c28.672-22.528 67.584-36.864 108.544-36.864 16.384 0 32.768 2.048 49.152 6.144v-333.824zM481.28 448c0-22.622-18.338-40.96-40.96-40.96s-40.96 18.338-40.96 40.96c0 22.622 18.338 40.96 40.96 40.96s40.96-18.338 40.96-40.96zM624.64 448c0-22.622-18.338-40.96-40.96-40.96s-40.96 18.338-40.96 40.96c0 22.622 18.338 40.96 40.96 40.96s40.96-18.338 40.96-40.96zM481.28 325.12c0-22.622-18.338-40.96-40.96-40.96s-40.96 18.338-40.96 40.96c0 22.622 18.338 40.96 40.96 40.96s40.96-18.338 40.96-40.96zM624.64 325.12c0-22.622-18.338-40.96-40.96-40.96s-40.96 18.338-40.96 40.96c0 22.622 18.338 40.96 40.96 40.96s40.96-18.338 40.96-40.96z" />
<glyph unicode="&#xe90f;" glyph-name="Dry-16" d="M798.72 714.24c-12.288 0-20.48-8.192-20.48-20.48v-94.208c-14.336-6.144-30.72-8.192-49.152-8.192-36.864 0-71.68 14.336-94.208 36.864l-14.336 16.384-14.336-16.384c-20.48-22.528-55.296-36.864-94.208-36.864-36.864 0-71.68 14.336-94.208 36.864l-14.336 16.384-14.336-16.384c-20.48-22.528-55.296-36.864-94.208-36.864-16.384 0-32.768 4.096-49.152 8.192v94.208c0 12.288-8.192 20.48-20.48 20.48s-20.48-8.192-20.48-20.48v-491.52c0-12.288 8.192-20.48 20.48-20.48h573.44c12.288 0 20.48 8.192 20.48 20.48v491.52c0 12.288-8.192 20.48-20.48 20.48zM778.24 222.72h-532.48v333.824c14.336-4.096 30.72-6.144 49.152-6.144 40.96 0 79.872 12.288 108.544 36.864 28.672-24.576 67.584-36.864 108.544-36.864s79.872 12.288 108.544 36.864c28.672-22.528 67.584-36.864 108.544-36.864 16.384 0 32.768 2.048 49.152 6.144v-333.824zM409.6 448c0-22.622-18.338-40.96-40.96-40.96s-40.96 18.338-40.96 40.96c0 22.622 18.338 40.96 40.96 40.96s40.96-18.338 40.96-40.96zM552.96 448c0-22.622-18.338-40.96-40.96-40.96s-40.96 18.338-40.96 40.96c0 22.622 18.338 40.96 40.96 40.96s40.96-18.338 40.96-40.96zM696.32 448c0-22.622-18.338-40.96-40.96-40.96s-40.96 18.338-40.96 40.96c0 22.622 18.338 40.96 40.96 40.96s40.96-18.338 40.96-40.96zM491.52 325.12c0-22.622-18.338-40.96-40.96-40.96s-40.96 18.338-40.96 40.96c0 22.622 18.338 40.96 40.96 40.96s40.96-18.338 40.96-40.96zM634.88 325.12c0-22.622-18.338-40.96-40.96-40.96s-40.96 18.338-40.96 40.96c0 22.622 18.338 40.96 40.96 40.96s40.96-18.338 40.96-40.96z" />
<glyph unicode="&#xe910;" glyph-name="Dry-17" d="M798.72 714.24c-12.288 0-20.48-8.192-20.48-20.48v-94.208c-14.336-6.144-30.72-8.192-49.152-8.192-36.864 0-71.68 14.336-94.208 36.864l-14.336 16.384-14.336-16.384c-20.48-22.528-55.296-36.864-94.208-36.864-36.864 0-71.68 14.336-94.208 36.864l-14.336 16.384-14.336-16.384c-20.48-22.528-55.296-36.864-94.208-36.864-16.384 0-32.768 4.096-49.152 8.192v94.208c0 12.288-8.192 20.48-20.48 20.48s-20.48-8.192-20.48-20.48v-491.52c0-12.288 8.192-20.48 20.48-20.48h573.44c12.288 0 20.48 8.192 20.48 20.48v491.52c0 12.288-8.192 20.48-20.48 20.48zM778.24 222.72h-532.48v333.824c14.336-4.096 30.72-6.144 49.152-6.144 40.96 0 79.872 12.288 108.544 36.864 28.672-24.576 67.584-36.864 108.544-36.864s79.872 12.288 108.544 36.864c28.672-22.528 67.584-36.864 108.544-36.864 16.384 0 32.768 2.048 49.152 6.144v-333.824zM409.6 448c0-22.622-18.338-40.96-40.96-40.96s-40.96 18.338-40.96 40.96c0 22.622 18.338 40.96 40.96 40.96s40.96-18.338 40.96-40.96zM552.96 448c0-22.622-18.338-40.96-40.96-40.96s-40.96 18.338-40.96 40.96c0 22.622 18.338 40.96 40.96 40.96s40.96-18.338 40.96-40.96zM696.32 448c0-22.622-18.338-40.96-40.96-40.96s-40.96 18.338-40.96 40.96c0 22.622 18.338 40.96 40.96 40.96s40.96-18.338 40.96-40.96zM409.6 325.12c0-22.622-18.338-40.96-40.96-40.96s-40.96 18.338-40.96 40.96c0 22.622 18.338 40.96 40.96 40.96s40.96-18.338 40.96-40.96zM552.96 325.12c0-22.622-18.338-40.96-40.96-40.96s-40.96 18.338-40.96 40.96c0 22.622 18.338 40.96 40.96 40.96s40.96-18.338 40.96-40.96zM696.32 325.12c0-22.622-18.338-40.96-40.96-40.96s-40.96 18.338-40.96 40.96c0 22.622 18.338 40.96 40.96 40.96s40.96-18.338 40.96-40.96z" />
<glyph unicode="&#xe911;" glyph-name="Dry-18" d="M876.544 622.080c-40.96-10.24-79.872-28.672-112.64-51.2-45.056 30.72-94.208 51.2-147.456 57.344l108.544 249.856c4.096 8.192 2.048 20.48-8.192 26.624s-22.528 2.048-28.672-8.192l-116.736-266.24c-38.912 0-75.776-8.192-110.592-20.48l-124.928 288.768c-6.144 10.24-18.432 12.288-28.672 8.192-10.24-8.192-12.288-20.48-8.192-28.672l124.928-280.576c-14.336-8.192-26.624-16.384-40.96-24.576-55.296 38.912-120.832 61.44-188.416 61.44-18.432 0-34.816-2.048-55.296-4.096l-16.384-6.144v-358.4l24.576 6.144c40.96 10.24 79.872 28.672 112.64 51.2 45.056-32.768 94.208-51.2 147.456-57.344l-108.544-247.808c-6.144-10.24-2.048-22.528 8.192-28.672s22.528-2.048 28.672 8.192l116.736 266.24c36.864 0 75.776 8.192 110.592 20.48l124.928-286.72c6.144-10.24 18.432-12.288 28.672-8.192 10.24 6.144 12.288 18.432 8.192 28.672l-124.928 280.576c14.336 8.192 26.624 14.336 40.96 24.576 55.296-38.912 120.832-61.44 188.416-61.44 18.432 0 36.864 2.048 55.296 4.096l16.384 2.048v360.448l-24.576-6.144zM552.96 591.36l-40.96-92.16-34.816 75.776c24.576 8.192 49.152 14.336 75.776 16.384zM251.904 370.176c-26.624-20.48-57.344-38.912-88.064-49.152v268.288c10.24 2.048 20.48 2.048 30.72 2.048 55.296 0 108.544-16.384 155.648-47.104-2.048-2.048-6.144-6.144-8.192-8.192s-6.144-6.144-8.192-8.192c-2.048-2.048-4.096-6.144-8.192-8.192-34.816-43.008-61.44-94.208-73.728-149.504zM290.816 353.792v0c10.24 57.344 36.864 108.544 75.776 149.504 0 0 2.048 2.048 2.048 2.048 4.096 4.096 8.192 8.192 12.288 12.288 2.048 2.048 4.096 4.096 6.144 6.144v0c16.384 14.336 32.768 24.576 51.2 34.816l49.152-110.592-63.488-141.312c-45.056 2.048-92.16 18.432-133.12 47.104zM471.040 304.64l40.96 92.16 34.816-75.776c-24.576-8.192-49.152-14.336-75.776-16.384zM630.784 370.176c-14.336-12.288-30.72-22.528-49.152-30.72l-47.104 108.544 63.488 141.312c47.104-4.096 92.16-18.432 133.12-45.056-12.288-12.288-24.576-26.624-36.864-40.96 0 0 0 0 0 0-4.096-6.144-8.192-12.288-12.288-18.432-24.576-34.816-43.008-73.728-51.2-114.688zM860.16 306.688c-69.632-8.192-133.12 10.24-190.464 47.104v2.048c6.144 32.768 16.384 63.488 32.768 92.16 0 0 0 0 0 0 4.096 6.144 8.192 12.288 10.24 18.432 2.048 2.048 2.048 4.096 4.096 6.144 2.048 4.096 4.096 6.144 8.192 10.24 2.048 2.048 4.096 6.144 6.144 8.192s2.048 4.096 4.096 4.096c8.192 8.192 14.336 16.384 22.528 22.528 0 0 0 0 0 0 28.672 24.576 61.44 45.056 98.304 57.344v-268.288z" />
<glyph unicode="&#xe912;" glyph-name="Dry-19" d="M778.24 144.896h-532.48c-26.624 0-49.152 14.336-63.488 36.864-12.288 22.528-12.288 49.152 0 73.728l266.24 462.848c12.288 22.528 36.864 36.864 63.488 36.864s49.152-14.336 63.488-36.864l266.24-462.848c12.288-22.528 12.288-49.152 0-73.728s-36.864-36.864-63.488-36.864zM512 710.144c-12.288 0-22.528-6.144-26.624-16.384l-266.24-462.848c-6.144-10.24-6.144-22.528 0-32.768s16.384-16.384 26.624-16.384h532.48c12.288 0 22.528 6.144 26.624 16.384 6.144 10.24 6.144 22.528 0 32.768l-266.24 462.848c-4.096 12.288-14.336 16.384-26.624 16.384z" />
<glyph unicode="&#xe913;" glyph-name="Dry-20" d="M962.56 271.872l-174.080 77.824-92.16 157.696 266.24 118.784c10.24 6.144 12.288 18.432 8.192 28.672-6.144 10.24-18.432 12.288-28.672 8.192l-266.24-118.784-100.352 174.080c-12.288 22.528-36.864 36.864-63.488 36.864s-49.152-14.336-63.488-36.864l-100.352-176.128-266.24 118.784c-8.192 4.096-20.48 2.048-26.624-8.192s-2.048-22.528 8.192-28.672l266.24-118.784-92.16-157.696-176.128-75.776c-10.24-6.144-12.288-18.432-8.192-28.672 8.192-10.24 20.48-12.288 28.672-8.192l118.784 53.248-20.48-34.816c-12.288-22.528-12.288-49.152 0-73.728 12.288-22.528 36.864-36.864 63.488-36.864h534.528c26.624 0 49.152 14.336 63.488 36.864 12.288 22.528 12.288 49.152 0 73.728l-20.48 34.816 118.784-53.248c10.24-6.144 22.528-2.048 28.672 8.192s2.048 22.528-6.144 28.672zM722.944 376.32l-159.744 71.68 96.256 43.008 63.488-114.688zM485.376 695.808c6.144 10.24 16.384 16.384 26.624 16.384 12.288 0 22.528-6.144 26.624-16.384l98.304-169.984-124.928-55.296-124.928 55.296 98.304 169.984zM366.592 491.008l96.256-43.008-161.792-71.68 65.536 114.688zM806.912 232.96c6.144-10.24 6.144-22.528 0-32.768s-16.384-16.384-26.624-16.384h-534.528c-12.288 0-22.528 6.144-26.624 16.384s-6.144 22.528 0 32.768l49.152 83.968 245.76 108.544 245.76-108.544 47.104-83.968z" />
<glyph unicode="&#xe914;" glyph-name="Dry-21" d="M841.728 253.44l-266.24 462.848c-12.288 22.528-36.864 36.864-63.488 36.864s-49.152-14.336-63.488-36.864l-266.24-462.848c-12.288-22.528-12.288-49.152 0-73.728 12.288-22.528 36.864-36.864 63.488-36.864h532.48c26.624 0 49.152 14.336 63.488 36.864s14.336 51.2 0 73.728zM526.336 185.856h-147.456l227.328 393.216 73.728-126.976-149.504-260.096c-2.048-2.048-2.048-4.096-4.096-6.144zM217.088 200.192c-6.144 10.24-6.144 22.528 0 32.768l266.24 462.848c6.144 10.24 16.384 16.384 26.624 16.384 12.288 0 22.528-6.144 26.624-16.384l43.008-75.776-243.712-428.032c-2.048-2.048-2.048-4.096-4.096-6.144h-86.016c-12.288 0-22.528 4.096-28.672 14.336zM806.912 200.192c-6.144-10.24-16.384-16.384-26.624-16.384h-206.848l131.072 225.28 102.4-178.176c6.144-8.192 6.144-20.48 0-30.72z" />
<glyph unicode="&#xe915;" glyph-name="Dry-22" d="M962.56 271.872l-174.080 77.824-92.16 157.696 266.24 118.784c10.24 6.144 12.288 18.432 8.192 28.672-6.144 10.24-18.432 12.288-28.672 8.192l-266.24-118.784-100.352 174.080c-12.288 22.528-36.864 36.864-63.488 36.864s-49.152-14.336-63.488-36.864l-100.352-176.128-266.24 118.784c-8.192 4.096-20.48 2.048-26.624-8.192s-2.048-22.528 8.192-28.672l266.24-118.784-92.16-157.696-176.128-75.776c-10.24-6.144-12.288-18.432-8.192-28.672 8.192-10.24 20.48-12.288 28.672-8.192l118.784 53.248-20.48-34.816c-12.288-22.528-12.288-49.152 0-73.728 12.288-22.528 36.864-36.864 63.488-36.864h534.528c26.624 0 49.152 14.336 63.488 36.864 12.288 22.528 12.288 49.152 0 73.728l-20.48 34.816 118.784-53.248c10.24-6.144 22.528-2.048 28.672 8.192s2.048 22.528-6.144 28.672zM722.944 376.32l-120.832 53.248v22.528h-28.672l86.016 36.864 63.488-112.64zM485.376 695.808c6.144 10.24 16.384 16.384 26.624 16.384 12.288 0 22.528-6.144 26.624-16.384l98.304-169.984-124.928-55.296-124.928 55.296 98.304 169.984zM366.592 491.008l81.92-36.864c-28.672-6.144-55.296-20.48-71.68-43.008l-77.824-34.816 67.584 114.688zM806.912 232.96c6.144-10.24 6.144-22.528 0-32.768s-16.384-16.384-26.624-16.384h-534.528c-12.288 0-22.528 6.144-26.624 16.384s-6.144 22.528 0 32.768l49.152 83.968 92.16 40.96c0-6.144-2.048-12.288-2.048-18.432 0-67.584 43.008-112.64 112.64-112.64 26.624 0 47.104 4.096 57.344 10.24l-6.144 32.768c-10.24-4.096-28.672-8.192-45.056-8.192-49.152 0-77.824 30.72-77.824 79.872 0 14.336 2.048 26.624 6.144 36.864l94.208 40.96c8.192-2.048 14.336-4.096 20.48-6.144l2.048 8.192 38.912-18.432v-174.080h131.072v34.816h-92.16v122.88l155.648-69.632 51.2-83.968z" />
<glyph unicode="&#xe916;" glyph-name="Dry-23" d="M794.624 755.2h-565.248c-12.288 0-24.576-10.24-24.576-24.576v-567.296c0-12.288 10.24-24.576 24.576-24.576h567.296c12.288 0 24.576 10.24 24.576 24.576v567.296c-2.048 14.336-12.288 24.576-26.624 24.576zM245.76 714.24h112.64c-47.104-26.624-86.016-65.536-112.64-112.64v112.64zM512 714.24c147.456 0 266.24-118.784 266.24-266.24s-118.784-266.24-266.24-266.24-266.24 118.784-266.24 266.24 118.784 266.24 266.24 266.24zM245.76 181.76v112.64c26.624-47.104 65.536-86.016 112.64-112.64h-112.64zM778.24 181.76h-112.64c47.104 26.624 86.016 65.536 112.64 112.64v-112.64zM665.6 714.24h112.64v-112.64c-26.624 47.104-65.536 86.016-112.64 112.64z" />
<glyph unicode="&#xe917;" glyph-name="Dry-24" d="M794.624 755.2h-565.248c-12.288 0-24.576-10.24-24.576-24.576v-567.296c0-12.288 10.24-24.576 24.576-24.576h567.296c12.288 0 24.576 10.24 24.576 24.576v567.296c-2.048 14.336-12.288 24.576-26.624 24.576zM245.76 714.24h112.64c-47.104-26.624-86.016-65.536-112.64-112.64v112.64zM512 714.24c147.456 0 266.24-118.784 266.24-266.24s-118.784-266.24-266.24-266.24-266.24 118.784-266.24 266.24 118.784 266.24 266.24 266.24zM245.76 181.76v112.64c26.624-47.104 65.536-86.016 112.64-112.64h-112.64zM778.24 181.76h-112.64c47.104 26.624 86.016 65.536 112.64 112.64v-112.64zM665.6 714.24h112.64v-112.64c-26.624 47.104-65.536 86.016-112.64 112.64zM507.904 407.040c22.528-2.048 43.008 14.336 45.056 36.864s-14.336 43.008-36.864 45.056c-22.528 2.048-43.008-14.336-45.056-36.864s14.336-43.008 36.864-45.056z" />
<glyph unicode="&#xe918;" glyph-name="Dry-25" d="M794.624 755.2h-565.248c-12.288 0-24.576-10.24-24.576-24.576v-567.296c0-12.288 10.24-24.576 24.576-24.576h567.296c12.288 0 24.576 10.24 24.576 24.576v567.296c-2.048 14.336-12.288 24.576-26.624 24.576zM245.76 714.24h112.64c-47.104-26.624-86.016-65.536-112.64-112.64v112.64zM512 714.24c147.456 0 266.24-118.784 266.24-266.24s-118.784-266.24-266.24-266.24-266.24 118.784-266.24 266.24 118.784 266.24 266.24 266.24zM245.76 181.76v112.64c26.624-47.104 65.536-86.016 112.64-112.64h-112.64zM778.24 181.76h-112.64c47.104 26.624 86.016 65.536 112.64 112.64v-112.64zM665.6 714.24h112.64v-112.64c-26.624 47.104-65.536 86.016-112.64 112.64zM481.28 448c0-22.622-18.338-40.96-40.96-40.96s-40.96 18.338-40.96 40.96c0 22.622 18.338 40.96 40.96 40.96s40.96-18.338 40.96-40.96zM624.64 448c0-22.622-18.338-40.96-40.96-40.96s-40.96 18.338-40.96 40.96c0 22.622 18.338 40.96 40.96 40.96s40.96-18.338 40.96-40.96z" />
<glyph unicode="&#xe919;" glyph-name="Dry-26" d="M794.624 755.2h-565.248c-12.288 0-24.576-10.24-24.576-24.576v-567.296c0-12.288 10.24-24.576 24.576-24.576h567.296c12.288 0 24.576 10.24 24.576 24.576v567.296c-2.048 14.336-12.288 24.576-26.624 24.576zM245.76 714.24h112.64c-47.104-26.624-86.016-65.536-112.64-112.64v112.64zM245.76 181.76v112.64c26.624-47.104 65.536-86.016 112.64-112.64h-112.64zM778.24 181.76h-112.64c47.104 26.624 86.016 65.536 112.64 112.64v-112.64zM512 181.76c-147.456 0-266.24 118.784-266.24 266.24s118.784 266.24 266.24 266.24 266.24-118.784 266.24-266.24-118.784-266.24-266.24-266.24zM778.24 601.6c-26.624 47.104-65.536 86.016-112.64 112.64h112.64v-112.64zM409.6 448c0-22.622-18.338-40.96-40.96-40.96s-40.96 18.338-40.96 40.96c0 22.622 18.338 40.96 40.96 40.96s40.96-18.338 40.96-40.96zM552.96 448c0-22.622-18.338-40.96-40.96-40.96s-40.96 18.338-40.96 40.96c0 22.622 18.338 40.96 40.96 40.96s40.96-18.338 40.96-40.96zM696.32 448c0-22.622-18.338-40.96-40.96-40.96s-40.96 18.338-40.96 40.96c0 22.622 18.338 40.96 40.96 40.96s40.96-18.338 40.96-40.96z" />
<glyph unicode="&#xe91a;" glyph-name="Dry-27" d="M794.624 755.2h-565.248c-12.288 0-24.576-10.24-24.576-24.576v-567.296c0-12.288 10.24-24.576 24.576-24.576h567.296c12.288 0 24.576 10.24 24.576 24.576v567.296c-2.048 14.336-12.288 24.576-26.624 24.576zM245.76 181.76v112.64c26.624-47.104 65.536-86.016 112.64-112.64h-112.64zM245.76 601.6v112.64h112.64c-47.104-26.624-86.016-65.536-112.64-112.64zM778.24 181.76h-112.64c47.104 26.624 86.016 65.536 112.64 112.64v-112.64zM778.24 601.6c-26.624 47.104-65.536 86.016-112.64 112.64h112.64v-112.64z" />
<glyph unicode="&#xe91b;" glyph-name="Dry-28" d="M794.624 755.2h-565.248c-12.288 0-24.576-10.24-24.576-24.576v-567.296c0-12.288 10.24-24.576 24.576-24.576h567.296c12.288 0 24.576 10.24 24.576 24.576v567.296c-2.048 14.336-12.288 24.576-26.624 24.576zM735.232 714.24c-47.104-73.728-129.024-122.88-223.232-122.88s-176.128 49.152-223.232 122.88h446.464zM245.76 181.76v522.24c53.248-92.16 151.552-153.6 266.24-153.6s212.992 61.44 266.24 153.6v-522.24h-532.48z" />
<glyph unicode="&#xe91c;" glyph-name="Dry-29" d="M778.24 714.24v-532.48h-532.48v532.48h532.48zM794.624 755.2h-565.248c-12.288 0-24.576-10.24-24.576-24.576v-567.296c0-12.288 10.24-24.576 24.576-24.576h567.296c12.288 0 24.576 10.24 24.576 24.576v567.296c-2.048 14.336-12.288 24.576-26.624 24.576v0zM389.12 294.4v0c-12.288 0-20.48 8.192-20.48 20.48v266.24c0 12.288 8.192 20.48 20.48 20.48v0c12.288 0 20.48-8.192 20.48-20.48v-266.24c0-12.288-8.192-20.48-20.48-20.48zM512 294.4v0c-12.288 0-20.48 8.192-20.48 20.48v266.24c0 12.288 8.192 20.48 20.48 20.48v0c12.288 0 20.48-8.192 20.48-20.48v-266.24c0-12.288-8.192-20.48-20.48-20.48zM634.88 294.4v0c-12.288 0-20.48 8.192-20.48 20.48v266.24c0 12.288 8.192 20.48 20.48 20.48v0c12.288 0 20.48-8.192 20.48-20.48v-266.24c0-12.288-8.192-20.48-20.48-20.48z" />
<glyph unicode="&#xe91d;" glyph-name="Dry-30" d="M778.24 714.24v-532.48h-532.48v532.48h532.48zM794.624 755.2h-565.248c-12.288 0-24.576-10.24-24.576-24.576v-567.296c0-12.288 10.24-24.576 24.576-24.576h567.296c12.288 0 24.576 10.24 24.576 24.576v567.296c-2.048 14.336-12.288 24.576-26.624 24.576v0zM512 294.4v0c-12.288 0-20.48 8.192-20.48 20.48v266.24c0 12.288 8.192 20.48 20.48 20.48v0c12.288 0 20.48-8.192 20.48-20.48v-266.24c0-12.288-8.192-20.48-20.48-20.48z" />
<glyph unicode="&#xe91e;" glyph-name="Dry-31" d="M794.624 755.2h-565.248c-12.288 0-24.576-10.24-24.576-24.576v-567.296c0-12.288 10.24-24.576 24.576-24.576h567.296c12.288 0 24.576 10.24 24.576 24.576v567.296c-2.048 14.336-12.288 24.576-26.624 24.576zM245.76 525.824l188.416 188.416h96.256l-143.36-143.36c0 0 0 0 0 0l-141.312-139.264v94.208zM374.784 714.24l-129.024-129.024v129.024h129.024zM778.24 181.76h-532.48v192.512c2.048 0 4.096 2.048 4.096 4.096l335.872 335.872h192.512v-532.48z" />
<glyph unicode="&#xe91f;" glyph-name="Dry-32" d="M962.56 271.872l-143.36 63.488v227.328l143.36 63.488c10.24 6.144 12.288 18.432 8.192 28.672-6.144 10.24-18.432 12.288-28.672 8.192l-122.88-53.248v124.928c0 12.288-10.24 24.576-24.576 24.576h-565.248c-12.288 0-24.576-10.24-24.576-24.576v-124.928l-122.88 53.248c-8.192 2.048-20.48 0-26.624-10.24s-2.048-22.528 8.192-28.672l143.36-63.488v-227.328l-143.36-63.488c-10.24-6.144-12.288-18.432-8.192-28.672 6.144-8.192 18.432-10.24 26.624-6.144l122.88 53.248v-124.928c0-12.288 10.24-24.576 24.576-24.576h567.296c12.288 0 24.576 10.24 24.576 24.576v124.928l122.88-53.248c10.24-6.144 22.528-2.048 28.672 8.192 2.048 10.24-2.048 22.528-10.24 28.672zM778.24 351.744l-215.040 96.256 215.040 96.256v-192.512zM245.76 714.24h532.48v-126.976l-266.24-118.784-266.24 118.784v126.976zM245.76 544.256l215.040-96.256-215.040-96.256v192.512zM778.24 181.76h-532.48v126.976l266.24 118.784 266.24-118.784v-126.976z" />
<glyph unicode="&#xe920;" glyph-name="Dry-33" d="M962.56 271.872l-143.36 63.488v227.328l143.36 63.488c10.24 6.144 12.288 18.432 8.192 28.672-6.144 10.24-18.432 12.288-28.672 8.192l-122.88-53.248v124.928c0 12.288-10.24 24.576-24.576 24.576h-565.248c-12.288 0-24.576-10.24-24.576-24.576v-124.928l-122.88 53.248c-8.192 2.048-20.48 0-26.624-10.24s-2.048-22.528 8.192-28.672l143.36-63.488v-227.328l-143.36-63.488c-10.24-6.144-12.288-18.432-8.192-28.672 6.144-8.192 18.432-10.24 26.624-6.144l122.88 53.248v-124.928c0-12.288 10.24-24.576 24.576-24.576h567.296c12.288 0 24.576 10.24 24.576 24.576v124.928l122.88-53.248c10.24-6.144 22.528-2.048 28.672 8.192 2.048 10.24-2.048 22.528-10.24 28.672zM778.24 448c0-30.72-6.144-61.44-16.384-88.064l-198.656 88.064 200.704 88.064c8.192-26.624 14.336-57.344 14.336-88.064zM512 470.528l-233.472 104.448c45.056 81.92 133.12 139.264 233.472 139.264s188.416-57.344 233.472-139.264l-233.472-104.448zM262.144 536.064l200.704-88.064-200.704-88.064c-10.24 26.624-16.384 57.344-16.384 88.064s6.144 61.44 16.384 88.064zM512 425.472l233.472-104.448c-45.056-81.92-133.12-139.264-233.472-139.264s-188.416 57.344-233.472 139.264l233.472 104.448zM778.24 714.24v-112.64c-26.624 47.104-65.536 86.016-112.64 112.64h112.64zM358.4 714.24c-47.104-26.624-86.016-65.536-112.64-112.64v112.64h112.64zM245.76 181.76v112.64c26.624-47.104 65.536-86.016 112.64-112.64h-112.64zM665.6 181.76c47.104 26.624 86.016 65.536 112.64 112.64v-112.64h-112.64z" />
<glyph unicode="&#xe921;" glyph-name="Dry-34" d="M778.24 714.24v-532.48h-532.48v532.48h532.48zM794.624 755.2h-565.248c-12.288 0-24.576-10.24-24.576-24.576v-567.296c0-12.288 10.24-24.576 24.576-24.576h567.296c12.288 0 24.576 10.24 24.576 24.576v567.296c-2.048 14.336-12.288 24.576-26.624 24.576v0z" />
<glyph unicode="&#xe922;" glyph-name="Dry-35" d="M798.72 704h-327.68c-12.288 0-20.48-8.192-20.48-20.48s8.192-20.48 20.48-20.48h307.2v-143.36h-266.24c-169.984 0-307.2-137.216-307.2-307.2 0-6.144 0-14.336 2.048-20.48h591.872c12.288 0 20.48 8.192 20.48 20.48v471.040c0 12.288-8.192 20.48-20.48 20.48zM778.24 232.96h-530.432c10.24 137.216 124.928 245.76 264.192 245.76h266.24v-245.76z" />
<glyph unicode="&#xe923;" glyph-name="Dry-36" d="M962.56 230.912l-143.36 63.488v229.376l143.36 63.488c10.24 6.144 12.288 18.432 8.192 28.672-6.144 10.24-18.432 12.288-28.672 8.192l-122.88-53.248v118.784c0 12.288-8.192 20.48-20.48 20.48h-327.68c-12.288 0-20.48-8.192-20.48-20.48s8.192-20.48 20.48-20.48h307.2v-116.736l-61.44-26.624h-204.8c-47.104 0-94.208-12.288-133.12-30.72l-296.96 124.928c-8.192 4.096-20.48 2.048-26.624-8.192s-2.048-22.528 8.192-28.672l272.384-120.832c-55.296-38.912-98.304-96.256-116.736-163.84l-157.696-67.584c-10.24-6.144-12.288-18.432-8.192-28.672 8.192-10.24 20.48-12.288 28.672-8.192l124.928 55.296c-2.048-12.288-2.048-24.576-2.048-36.864 0-6.144 0-14.336 2.048-20.48h591.872c12.288 0 20.48 8.192 20.48 20.48v36.864l122.88-53.248c10.24-6.144 22.528-2.048 28.672 8.192 4.096 8.192 0 20.48-8.192 26.624zM778.24 478.72v-167.936l-215.040 96.256 161.792 71.68h53.248zM512 478.72h110.592l-110.592-49.152-81.92 36.864c26.624 8.192 53.248 12.288 81.92 12.288zM380.928 443.904l81.92-36.864-192.512-83.968c22.528 49.152 61.44 92.16 110.592 120.832zM778.24 232.96h-530.432c0 12.288 4.096 24.576 6.144 36.864l258.048 114.688 266.24-118.784v-32.768z" />
<glyph unicode="&#xe924;" glyph-name="Dry-37" d="M798.72 704h-327.68c-12.288 0-20.48-8.192-20.48-20.48s8.192-20.48 20.48-20.48h307.2v-143.36h-266.24c-169.984 0-307.2-137.216-307.2-307.2 0-6.144 0-14.336 2.048-20.48h591.872c12.288 0 20.48 8.192 20.48 20.48v471.040c0 12.288-8.192 20.48-20.48 20.48zM778.24 232.96h-530.432c10.24 137.216 124.928 245.76 264.192 245.76h266.24v-245.76zM552.96 345.6c0-22.622-18.338-40.96-40.96-40.96s-40.96 18.338-40.96 40.96c0 22.622 18.338 40.96 40.96 40.96s40.96-18.338 40.96-40.96z" />
<glyph unicode="&#xe925;" glyph-name="Dry-38" d="M798.72 704h-327.68c-12.288 0-20.48-8.192-20.48-20.48s8.192-20.48 20.48-20.48h307.2v-143.36h-266.24c-169.984 0-307.2-137.216-307.2-307.2 0-6.144 0-14.336 2.048-20.48h591.872c12.288 0 20.48 8.192 20.48 20.48v471.040c0 12.288-8.192 20.48-20.48 20.48zM778.24 232.96h-530.432c10.24 137.216 124.928 245.76 264.192 245.76h266.24v-245.76zM481.28 345.6c0-22.622-18.338-40.96-40.96-40.96s-40.96 18.338-40.96 40.96c0 22.622 18.338 40.96 40.96 40.96s40.96-18.338 40.96-40.96zM624.64 345.6c0-22.622-18.338-40.96-40.96-40.96s-40.96 18.338-40.96 40.96c0 22.622 18.338 40.96 40.96 40.96s40.96-18.338 40.96-40.96z" />
<glyph unicode="&#xe926;" glyph-name="Dry-39" d="M798.72 704h-327.68c-12.288 0-20.48-8.192-20.48-20.48s8.192-20.48 20.48-20.48h307.2v-143.36h-266.24c-169.984 0-307.2-137.216-307.2-307.2 0-6.144 0-14.336 2.048-20.48h591.872c12.288 0 20.48 8.192 20.48 20.48v471.040c0 12.288-8.192 20.48-20.48 20.48zM778.24 232.96h-530.432c10.24 137.216 124.928 245.76 264.192 245.76h266.24v-245.76zM409.6 345.6c0-22.622-18.338-40.96-40.96-40.96s-40.96 18.338-40.96 40.96c0 22.622 18.338 40.96 40.96 40.96s40.96-18.338 40.96-40.96zM552.96 345.6c0-22.622-18.338-40.96-40.96-40.96s-40.96 18.338-40.96 40.96c0 22.622 18.338 40.96 40.96 40.96s40.96-18.338 40.96-40.96zM696.32 345.6c0-22.622-18.338-40.96-40.96-40.96s-40.96 18.338-40.96 40.96c0 22.622 18.338 40.96 40.96 40.96s40.96-18.338 40.96-40.96z" />
<glyph unicode="&#xe927;" glyph-name="Dry-40" d="M983.040 67.072l-274.432 120.832-26.624 100.352 301.056 131.072c10.24 6.144 12.288 18.432 8.192 28.672-6.144 10.24-18.432 12.288-28.672 8.192l-143.36-63.488v454.656c0 12.288-8.192 20.48-20.48 20.48h-327.68c-12.288 0-20.48-8.192-20.48-20.48s8.192-20.48 20.48-20.48h307.2v-143.36h-266.24c-157.696 0-288.768-120.832-305.152-274.432l-102.4 45.056c-10.24 6.144-22.528 4.096-28.672-6.144s-2.048-22.528 8.192-28.672l122.88-53.248c0-4.096 0-6.144 0-10.24h20.48l116.736-51.2-34.816-137.216-227.328-100.352c-10.24-6.144-12.288-18.432-8.192-28.672 8.192-10.24 20.48-12.288 28.672-8.192l194.56 86.016-2.048-8.192c-2.048-10.24 4.096-22.528 14.336-24.576s22.528 4.096 24.576 14.336l10.24 38.912 188.416 83.968 141.312-63.488 14.336-59.392c2.048-10.24 14.336-18.432 24.576-14.336 10.24 2.048 18.432 14.336 14.336 24.576l-8.192 28.672 243.712-106.496c10.24-6.144 22.528-2.048 28.672 8.192 4.096 10.24 0 22.528-8.192 28.672zM673.792 327.168l-8.192 28.672h71.68l-63.488-28.672zM512 642.56h266.24v-245.76h-530.432c10.24 137.216 124.928 245.76 264.192 245.76zM327.68 355.84h30.72l-2.048-12.288-28.672 12.288zM358.4 187.904l24.576 98.304 98.304-43.008-122.88-55.296zM393.216 327.168l8.192 28.672h223.232l12.288-45.056-102.4-45.056-141.312 61.44zM583.68 243.2l61.44 26.624 16.384-61.44-77.824 34.816z" />
<glyph unicode="&#xe928;" glyph-name="Dry-41" d="M512 714.24c147.456 0 266.24-118.784 266.24-266.24s-118.784-266.24-266.24-266.24-266.24 118.784-266.24 266.24 118.784 266.24 266.24 266.24zM512 755.2c-169.984 0-307.2-137.216-307.2-307.2s137.216-307.2 307.2-307.2 307.2 137.216 307.2 307.2-137.216 307.2-307.2 307.2v0z" />
<glyph unicode="&#xe929;" glyph-name="Dry-42" d="M512 714.24c147.456 0 266.24-118.784 266.24-266.24s-118.784-266.24-266.24-266.24-266.24 118.784-266.24 266.24 118.784 266.24 266.24 266.24zM512 755.2c-169.984 0-307.2-137.216-307.2-307.2s137.216-307.2 307.2-307.2 307.2 137.216 307.2 307.2-137.216 307.2-307.2 307.2v0zM473.088 411.136l-20.48-65.536h-43.008l75.776 235.52h55.296l73.728-235.52h-45.056l-20.48 65.536h-75.776zM540.672 443.904l-18.432 57.344c-4.096 14.336-8.192 30.72-12.288 43.008v0c-4.096-14.336-6.144-30.72-10.24-43.008l-18.432-57.344h59.392z" />
<glyph unicode="&#xe92a;" glyph-name="Dry-43" d="M512 714.24c147.456 0 266.24-118.784 266.24-266.24s-118.784-266.24-266.24-266.24-266.24 118.784-266.24 266.24 118.784 266.24 266.24 266.24zM512 755.2c-169.984 0-307.2-137.216-307.2-307.2s137.216-307.2 307.2-307.2 307.2 137.216 307.2 307.2-137.216 307.2-307.2 307.2v0zM440.32 577.024c14.336 2.048 36.864 4.096 65.536 4.096 30.72 0 55.296-6.144 69.632-18.432s22.528-30.72 22.528-51.2c0-22.528-6.144-40.96-20.48-53.248-16.384-16.384-43.008-24.576-73.728-24.576-8.192 0-14.336 0-20.48 2.048v-90.112h-43.008v231.424zM481.28 468.48c6.144-2.048 12.288-2.048 20.48-2.048 32.768 0 51.2 16.384 51.2 43.008s-18.432 40.96-47.104 40.96c-12.288 0-20.48-2.048-24.576-2.048v-79.872z" />
<glyph unicode="&#xe92b;" glyph-name="Dry-44" d="M512 714.24c147.456 0 266.24-118.784 266.24-266.24s-118.784-266.24-266.24-266.24-266.24 118.784-266.24 266.24 118.784 266.24 266.24 266.24zM512 755.2c-169.984 0-307.2-137.216-307.2-307.2s137.216-307.2 307.2-307.2 307.2 137.216 307.2 307.2-137.216 307.2-307.2 307.2v0zM448.512 581.12h135.168v-34.816h-92.16v-65.536h86.016v-34.816h-86.016v-100.352h-43.008v235.52z" />
<glyph unicode="&#xe92c;" glyph-name="Dry-45" d="M512 714.24c147.456 0 266.24-118.784 266.24-266.24s-118.784-266.24-266.24-266.24-266.24 118.784-266.24 266.24 118.784 266.24 266.24 266.24zM512 755.2c-169.984 0-307.2-137.216-307.2-307.2s137.216-307.2 307.2-307.2 307.2 137.216 307.2 307.2-137.216 307.2-307.2 307.2v0zM423.936 345.6l-57.344 235.52h45.056l22.528-106.496c6.144-28.672 12.288-59.392 14.336-81.92v0c4.096 24.576 10.24 53.248 16.384 81.92l24.576 106.496h45.056l22.528-108.544c6.144-28.672 10.24-53.248 14.336-79.872v0c4.096 26.624 10.24 53.248 16.384 81.92l24.576 106.496h43.008l-59.392-235.52h-45.056l-24.576 110.592c-6.144 26.624-10.24 49.152-12.288 73.728v0c-4.096-24.576-8.192-47.104-16.384-73.728l-28.672-110.592h-45.056z" />
<glyph unicode="&#xe92d;" glyph-name="Dry-46" d="M962.56 271.872l-161.792 71.68c12.288 32.768 18.432 67.584 18.432 104.448s-6.144 71.68-18.432 104.448l161.792 71.68c10.24 6.144 12.288 18.432 8.192 28.672-6.144 10.24-18.432 12.288-28.672 8.192l-157.696-69.632c-51.2 98.304-153.6 163.84-272.384 163.84s-221.184-67.584-272.384-163.84l-157.696 69.632c-8.192 4.096-20.48 2.048-26.624-8.192s-2.048-22.528 8.192-28.672l161.792-71.68c-14.336-32.768-20.48-67.584-20.48-104.448s6.144-71.68 18.432-104.448l-161.792-71.68c-10.24-6.144-12.288-18.432-8.192-28.672 8.192-10.24 20.48-12.288 28.672-8.192l157.696 69.632c51.2-98.304 153.6-163.84 272.384-163.84s221.184 67.584 272.384 163.84l157.696-69.632c10.24-6.144 22.528-2.048 28.672 8.192 4.096 10.24 0 22.528-8.192 28.672zM512 714.24c100.352 0 188.416-57.344 233.472-139.264l-233.472-104.448-233.472 104.448c45.056 81.92 133.12 139.264 233.472 139.264zM245.76 448c0 30.72 6.144 61.44 16.384 88.064l200.704-88.064-200.704-88.064c-10.24 26.624-16.384 57.344-16.384 88.064zM512 181.76c-100.352 0-188.416 57.344-233.472 139.264l233.472 104.448 233.472-104.448c-45.056-81.92-133.12-139.264-233.472-139.264zM761.856 359.936l-198.656 88.064 200.704 88.064c8.192-26.624 14.336-57.344 14.336-88.064s-6.144-61.44-16.384-88.064z" />
</font>
</defs>
</svg>
